<svg xmlns="http://www.w3.org/2000/svg" width="544" height="544" viewBox="0 0 544 544" version="1.1"><path d="M 176 102.535 C 163.990 104.705, 153.215 110.696, 142.886 120.950 C 130.557 133.188, 127.666 139.657, 121.636 168.500 C 119.106 180.600, 115.652 197.025, 113.959 205 C 102.351 259.701, 93.186 302.805, 88.871 323 C 82.562 352.525, 81.007 361.824, 81.011 370 C 81.033 406.820, 104.936 436.922, 140.255 444.606 C 150.387 446.810, 169.330 446.790, 179.936 444.563 C 203.855 439.542, 223.835 428.390, 242.628 409.571 C 257.867 394.311, 269.270 376.399, 272.913 362 C 273.945 357.919, 286 302.898, 286 302.267 C 286 301.061, 279.270 302.660, 270.524 305.945 C 251.871 312.951, 239.946 320.524, 222.774 336.267 C 213.178 345.064, 211.636 346.966, 208.149 354.300 C 202.121 366.979, 193.471 374.127, 179.970 377.586 C 164.236 381.617, 151 371.940, 151 356.406 C 151 350.777, 185.100 186.409, 190.061 168.125 C 195.789 147.016, 212.049 123.478, 231.710 107.833 C 235.170 105.080, 238 102.417, 238 101.914 C 238 100.423, 184.741 100.956, 176 102.535 M 264.402 101.956 C 253.276 103.677, 241.391 109.333, 232.788 117.001 C 219.427 128.909, 207.351 149.862, 205.324 164.653 L 204.728 169 286.728 169 C 337.928 169, 370.750 169.381, 374.114 170.014 C 389.908 172.986, 396.834 189.163, 389.218 205.292 C 385.684 212.777, 378.812 219.754, 371.144 223.639 L 365.500 226.500 319.500 227.018 L 273.500 227.537 266.579 230.288 C 253.989 235.293, 244.058 242.482, 236.588 252 C 228.237 262.642, 226.465 267.616, 219.572 299.779 C 216.069 316.126, 213.371 329.677, 213.578 329.893 C 213.784 330.109, 216.776 327.819, 220.226 324.803 C 235.382 311.557, 249.745 303.344, 266.500 298.340 C 275.434 295.672, 275.806 295.647, 317 294.970 C 360.098 294.262, 361.617 294.118, 376.500 289.347 C 384.020 286.936, 400.548 278.428, 408.963 272.636 C 417.602 266.690, 431.647 253.166, 438.181 244.500 C 456.551 220.138, 464.918 190.726, 460.886 164.692 C 457.229 141.081, 442.525 120.760, 421.672 110.495 C 403.369 101.486, 405.275 101.681, 333 101.407 C 298.075 101.275, 267.206 101.522, 264.402 101.956" stroke="none" fill="#060606" fill-="evenodd"/><path d="M 0 272.002 L 0 544.004 272.250 543.752 L 544.500 543.500 544.752 271.750 L 545.004 0 272.502 0 L 0 0 0 272.002 M 0.493 272.500 C 0.493 422.100, 0.609 483.151, 0.750 408.169 C 0.891 333.188, 0.891 210.788, 0.750 136.169 C 0.609 61.551, 0.493 122.900, 0.493 272.500 M 176 102.535 C 163.990 104.705, 153.215 110.696, 142.886 120.950 C 130.557 133.188, 127.666 139.657, 121.636 168.500 C 119.106 180.600, 115.652 197.025, 113.959 205 C 102.351 259.701, 93.186 302.805, 88.871 323 C 82.562 352.525, 81.007 361.824, 81.011 370 C 81.033 406.820, 104.936 436.922, 140.255 444.606 C 150.387 446.810, 169.330 446.790, 179.936 444.563 C 203.855 439.542, 223.835 428.390, 242.628 409.571 C 257.867 394.311, 269.270 376.399, 272.913 362 C 273.945 357.919, 286 302.898, 286 302.267 C 286 301.061, 279.270 302.660, 270.524 305.945 C 251.871 312.951, 239.946 320.524, 222.774 336.267 C 213.178 345.064, 211.636 346.966, 208.149 354.300 C 202.121 366.979, 193.471 374.127, 179.970 377.586 C 164.236 381.617, 151 371.940, 151 356.406 C 151 350.777, 185.100 186.409, 190.061 168.125 C 195.789 147.016, 212.049 123.478, 231.710 107.833 C 235.170 105.080, 238 102.417, 238 101.914 C 238 100.423, 184.741 100.956, 176 102.535 M 264.402 101.956 C 253.276 103.677, 241.391 109.333, 232.788 117.001 C 219.427 128.909, 207.351 149.862, 205.324 164.653 L 204.728 169 286.728 169 C 337.928 169, 370.750 169.381, 374.114 170.014 C 389.908 172.986, 396.834 189.163, 389.218 205.292 C 385.684 212.777, 378.812 219.754, 371.144 223.639 L 365.500 226.500 319.500 227.018 L 273.500 227.537 266.579 230.288 C 253.989 235.293, 244.058 242.482, 236.588 252 C 228.237 262.642, 226.465 267.616, 219.572 299.779 C 216.069 316.126, 213.371 329.677, 213.578 329.893 C 213.784 330.109, 216.776 327.819, 220.226 324.803 C 235.382 311.557, 249.745 303.344, 266.500 298.340 C 275.434 295.672, 275.806 295.647, 317 294.970 C 360.098 294.262, 361.617 294.118, 376.500 289.347 C 384.020 286.936, 400.548 278.428, 408.963 272.636 C 417.602 266.690, 431.647 253.166, 438.181 244.500 C 456.551 220.138, 464.918 190.726, 460.886 164.692 C 457.229 141.081, 442.525 120.760, 421.672 110.495 C 403.369 101.486, 405.275 101.681, 333 101.407 C 298.075 101.275, 267.206 101.522, 264.402 101.956" stroke="none" fill="#fbfbfb" fill-rule="evenodd"/></svg>